#!OML:ASF H:\Not Pregnant\Project 1\Capture day 1\Session 1\non-pregnant.ASF
:FULLY-SPECIFIED
:DEGREES
516
root 9.64391 16.2303 4.11466 28.8348 -77.76 -18.8542
lowerback -1.02732 9.14648 3.76824
upperback -7.33646 12.0173 -4.82609
thorax -5.29804 5.62841 -7.36642
lowerneck 11.0418 -8.94259 -29.5165
upperneck -5.23445 -16.3602 40.3338
head 3.33093 -9.791 19.7138
rclavicle 1.24936e-013 -6.36111e-015
rhumerus -52.5987 26.4402 -93.2731
rradius 19.6454
rwrist 32.6077
rhand -14.4369 -17.7775
rfingers 7.12502
rthumb 11.7078 -47.4304
lclavicle 1.24936e-013 -6.36111e-015
lhumerus -32.7591 1.55814 56.8715
lradius 113.798
lwrist 60.8065
lhand -18.9256 -9.25435
lfingers 7.12502
lthumb 7.37697 20.597
rfemur -32.1734 24.8386 5.32912
rtibia 36.1488
rfoot 15.2118 42.0248
rtoes 16.2455
lfemur -34.1094 -29.2358 -9.30388
ltibia 43.0626
lfoot 39.1106 -32.4071
ltoes 57.5512
517
root 9.62696 16.2678 4.07062 27.5684 -76.3126 -17.4977
lowerback -1.19796 9.05262 4.08807
upperback -7.36994 11.8955 -4.86826
thorax -5.18527 5.5563 -7.55093
lowerneck 11.0977 -8.92046 -29.5188
upperneck -5.04748 -16.3822 40.3461
head 3.37983 -9.80242 19.7292
rclavicle 1.45113e-013 3.49861e-014
rhumerus -51.9187 27.0093 -92.6938
rradius 20.6425
rwrist 30.829
rhand -17.3107 -18.4375
rfingers 7.12502
rthumb 8.93553 -48.2283
lclavicle 1.45113e-013 3.49861e-014
lhumerus -34.0431 0.196754 56.0212
lradius 111.642
lwrist 61.0128
lhand -18.4115 -8.77972
lfingers 7.12502
lthumb 7.87322 21.0537
rfemur -31.0783 24.85 6.10551
rtibia 35.1294
rfoot 16.0237 41.4386
rtoes 19.156
lfemur -34.3595 -29.0069 -8.94707
ltibia 42.9254
lfoot 39.966 -32.309
ltoes 57.5131
518
root 9.61166 16.3027 4.02772 26.5594 -74.8146 -16.4231
lowerback -1.35275 8.94241 4.45775
upperback -7.38312 11.7538 -4.90442
thorax -5.05656 5.4736 -7.75808
lowerneck 11.1571 -8.89003 -29.5218
upperneck -4.89734 -16.3833 40.3683
head 3.41167 -9.80494 19.7552
rclavicle 6.93262e-014 -3.18055e-014
rhumerus -51.2639 27.6501 -92.14
rradius 21.8088
rwrist 28.9834
rhand -19.6227 -18.7372
rfingers 7.12502
rthumb 6.7041 -48.6111
lclavicle 6.93262e-014 -3.18055e-014
lhumerus -35.2056 -1.2672 55.2805
lradius 109.32
lwrist 61.0717
lhand -17.9781 -8.36887
lfingers 7.12502
lthumb 8.29148 21.4484
rfemur -29.9436 24.7568 6.94649
rtibia 34.1358
rfoot 15.2744 40.8774
rtoes 21.249
lfemur -34.6051 -28.7993 -8.60411
ltibia 42.8447
lfoot 40.5001 -32.3206
ltoes 57.3454
519
root 9.59839 16.3341 3.98578 25.7335 -73.2696 -15.5527
lowerback -1.49371 8.82266 4.86193
upperback -7.37069 11.6009 -4.93398
thorax -4.90748 5.386 -7.97849
lowerneck 11.2336 -8.86578 -29.5235
upperneck -4.81946 -16.3787 40.3994
head 3.42055 -9.80772 19.7869
rclavicle -9.42239e-014 3.02153e-014
rhumerus -50.5757 28.2765 -91.5043
rradius 23.1235
rwrist 27.143
rhand -21.3743 -18.6604
rfingers 7.12502
rthumb 5.0129 -48.5811
lclavicle -9.42239e-014 3.02153e-014
lhumerus -36.2037 -2.83087 54.6644
lradius 106.84
lwrist 61.0368
lhand -17.6531 -7.94555
lfingers 7.12502
lthumb 8.60511 21.8591
rfemur -28.792 24.5484 7.83617
rtibia 33.2057
rfoot 13.0877 40.2242
rtoes 22.2133
lfemur -34.8461 -28.5853 -8.28221
ltibia 42.8331
lfoot 40.6919 -32.4245
ltoes 57.0543
520
root 9.58705 16.361 3.94413 25.0304 -71.711 -14.8244
lowerback -1.62334 8.70286 5.28905
upperback -7.33535 11.4483 -4.96447
thorax -4.73864 5.29984 -8.2137
lowerneck 11.3105 -8.84093 -29.5199
upperneck -4.78371 -16.3608 40.4368
head 3.41346 -9.80482 19.823
rclavicle 1.16339e-013 -3.18055e-014
rhumerus -49.8284 28.8363 -90.7434
rradius 24.5563
rwrist 25.3243
rhand -22.6523 -18.1404
rfingers 7.12502
rthumb 3.77883 -48.0867
lclavicle 1.16339e-013 -3.18055e-014
lhumerus -37.0399 -4.48758 54.1662
lradius 104.225
lwrist 61.0225
lhand -17.4624 -7.46794
lfingers 7.12502
lthumb 8.78919 22.329
rfemur -27.6489 24.2361 8.74569
rtibia 32.366
rfoot 9.89076 39.3177
rtoes 21.949
lfemur -35.0676 -28.3837 -8.00108
ltibia 42.9039
lfoot 40.4033 -32.6277
ltoes 56.6161
